# File created by Blade
# Date/Time:  Thu Jan 22 18:06:37 2015
#---------------------------------------------------------
:version 1.10
:name HOM
:units
  mass 1.0
  length 1.000000
  angle deg
:documentation
     Acclaim Skeleton File
:root
   axis xyz
   order TX TY TZ RX RY RZ
   position 0.000000 0.000000 0.000000
   orientation 0 0 0
:bonedata
   begin
      id 1
      name RightUpLeg_dum
      direction -1.000000 0.000000 0.000000
      length 4.478084
      axis 0.0 0.0 0.0 xyz
   end
   begin
      id 2
      name LeftUpLeg_dum
      direction 1.000000 0.000000 0.000000
      length 4.478084
      axis 0.0 0.0 0.0 xyz
   end
   begin
      id 3
      name Spine_dum
      direction 0.000000 1.000000 0.000000
      length 6.068208
      axis 0.0 0.0 0.0 xyz
   end
   begin
      id 4
      name RightUpLeg
      direction 0.000000 -1.000000 0.000000
      length 16.405774
      axis 0.0 0.0 0.0 xyz
      dof rx ry rz
   end
   begin
      id 5
      name RightLeg
      direction 0.000000 -1.000000 0.000000
      length 14.644143
      axis 0.0 0.0 0.0 xyz
      dof rx ry rz
   end
   begin
      id 6
      name RightFoot
      direction 0.000000 -0.258819 0.965926
      length 5.806150
      axis 15.0 0.0 0.0 xyz
      dof rx ry rz
   end
   begin
      id 7
      name RightToeBase
      direction 0.000000 0.000000 1.000000
      length 2.952750
      axis 0.0 0.0 0.0 xyz
      dof rx ry rz
   end
   begin
      id 8
      name LeftUpLeg
      direction 0.000000 -1.000000 0.000000
      length 16.405774
      axis 0.0 0.0 0.0 xyz
      dof rx ry rz
   end
   begin
      id 9
      name LeftLeg
      direction 0.000000 -1.000000 0.000000
      length 14.644143
      axis 0.0 0.0 0.0 xyz
      dof rx ry rz
   end
   begin
      id 10
      name LeftFoot
      direction 0.000000 -0.258819 0.965926
      length 5.806150
      axis 15.0 0.0 0.0 xyz
      dof rx ry rz
   end
   begin
      id 11
      name LeftToeBase
      direction 0.000000 0.000000 1.000000
      length 2.952750
      axis 0.0 0.0 0.0 xyz
      dof rx ry rz
   end
   begin
      id 12
      name Spine
      direction 0.000000 1.000000 0.000000
      length 0.000000
      axis 0.0 0.0 0.0 xyz
      dof rx ry rz
   end
   begin
      id 13
      name Spine_dum1
      direction 0.000000 1.000000 0.000000
      length 10.013923
      axis 0.0 0.0 0.0 xyz
   end
   begin
      id 14
      name Spine_dum2
      direction 0.000000 1.000000 0.000000
      length 10.013923
      axis 0.0 0.0 0.0 xyz
   end
   begin
      id 15
      name Spine_dum3
      direction 0.000000 1.000000 0.000000
      length 15.777476
      axis 0.0 0.0 0.0 xyz
   end
   begin
      id 16
      name RightShoulder
      direction -1.000000 0.000000 0.000000
      length 7.190220
      axis 0.0 0.0 90.0 xyz
      dof rx ry rz
   end
   begin
      id 17
      name RightArm
      direction -1.000000 0.000000 0.000000
      length 10.177469
      axis 0.0 0.0 90.0 xyz
      dof rx ry rz
   end
   begin
      id 18
      name RightForeArm
      direction -1.000000 0.000000 0.000000
      length 8.392114
      axis 0.0 0.0 90.0 xyz
      dof ry rz rx
   end
   begin
      id 19
      name RightHand
      direction -1.000000 0.000000 0.000000
      length 0.000000
      axis 0.0 0.0 90.0 xyz
      dof rx ry rz
   end
   begin
      id 20
      name RightHand_dum1
      direction -1.000000 0.000000 0.000000
      length 3.937000
      axis 0.0 0.0 90.0 xyz
   end
   begin
      id 21
      name RightHand_dum2
      direction 0.000000 0.000000 0.000000
      length 0.000000
      axis 0.0 0.0 90.0 xyz
   end
   begin
      id 22
      name RightHandThumb1
      direction 0.000000 0.000000 1.000000
      length 3.937000
      axis 0.0 0.0 90.0 xyz
      dof rx rz ry
   end
   begin
      id 23
      name LeftShoulder
      direction 1.000000 0.000000 0.000000
      length 7.190220
      axis 0.0 0.0 -90.0 xyz
      dof rx ry rz
   end
   begin
      id 24
      name LeftArm
      direction 1.000000 0.000000 0.000000
      length 10.177469
      axis 0.0 0.0 -90.0 xyz
      dof rx ry rz
   end
   begin
      id 25
      name LeftForeArm
      direction 1.000000 0.000000 0.000000
      length 8.392114
      axis 0.0 0.0 -90.0 xyz
      dof ry rz rx
   end
   begin
      id 26
      name LeftHand
      direction 1.000000 0.000000 0.000000
      length 0.000000
      axis 0.0 0.0 -90.0 xyz
      dof rx ry rz
   end
   begin
      id 27
      name LeftHand_dum1
      direction 1.000000 0.000000 0.000000
      length 3.937000
      axis 0.0 0.0 -90.0 xyz
   end
   begin
      id 28
      name LeftHand_dum2
      direction 0.000000 0.000000 0.000000
      length 0.000000
      axis 0.0 0.0 -90.0 xyz
   end
   begin
      id 29
      name LeftHandThumb1
      direction 0.000000 0.000000 1.000000
      length 3.937000
      axis 0.0 0.0 -90.0 xyz
      dof rx rz ry
   end
   begin
      id 30
      name Head
      direction 0.000000 1.000000 0.000000
      length 4.527550
      axis 0.0 0.0 0.0 xyz
      dof rx ry rz
   end
:hierarchy
   begin
      root RightUpLeg_dum LeftUpLeg_dum Spine_dum
      RightUpLeg_dum RightUpLeg
      LeftUpLeg_dum LeftUpLeg
      Spine_dum Spine
      RightUpLeg RightLeg
      RightLeg RightFoot
      RightFoot RightToeBase
      LeftUpLeg LeftLeg
      LeftLeg LeftFoot
      LeftFoot LeftToeBase
      Spine Spine_dum1 Spine_dum2 Spine_dum3
      Spine_dum1 RightShoulder
      Spine_dum2 LeftShoulder
      Spine_dum3 Head
      RightShoulder RightArm
      RightArm RightForeArm
      RightForeArm RightHand
      RightHand RightHand_dum1 RightHand_dum2
      RightHand_dum2 RightHandThumb1
      LeftShoulder LeftArm
      LeftArm LeftForeArm
      LeftForeArm LeftHand
      LeftHand LeftHand_dum1 LeftHand_dum2
      LeftHand_dum2 LeftHandThumb1
   end

# File created by Blade
# Date/Time:  Thu Jan 22 18:06:27 2015
# Frame Rate: 120.000 fps
#------------------------------------------------------
:FULLY-SPECIFIED
:DEGREES
640
root 0.932485 32.695713 -2.214832 11.326188 29.400124 7.279774
RightUpLeg -20.496551 13.324161 1.084873
RightLeg 68.148239 -0.000000 -0.000000
RightFoot 1.177639 3.103186 2.112299
RightToeBase -10.418712 -0.000000 0.000000
LeftUpLeg -0.896575 -19.241396 -11.404610
LeftLeg -2.866431 -0.000000 0.000000
LeftFoot -3.865625 -9.263817 -4.230270
LeftToeBase 9.481290 -0.000000 -0.000000
Spine -9.619328 -10.995766 -6.239425
RightShoulder -20.123346 -20.030775 -22.833846
RightArm 13.703944 27.876732 49.613029
RightForeArm -8.706286 0.000000 14.987013
RightHand 6.702937 -0.000000 11.506097
RightHandThumb1 -24.326973 -0.000000 -32.862282
LeftShoulder -19.816913 -0.715840 25.892502
LeftArm 34.351268 -22.919531 -59.545983
LeftForeArm 2.482660 -0.000000 42.280868
LeftHand 0.785155 -0.000000 35.689251
LeftHandThumb1 -26.253704 0.000000 33.147579
Head 17.211748 1.222770 -2.481981
641
root 0.928829 32.701579 -2.220193 11.316389 29.350365 7.186440
RightUpLeg -20.584349 14.103917 0.696501
RightLeg 68.143851 -0.000000 -0.000000
RightFoot 0.647387 1.118978 1.360471
RightToeBase -10.392202 -0.000000 0.000000
LeftUpLeg -0.975169 -19.127964 -11.325028
LeftLeg -2.817662 -0.000000 0.000000
LeftFoot -3.893894 -9.302197 -4.202072
LeftToeBase 9.487837 -0.000000 -0.000000
Spine -9.676043 -10.996251 -6.130813
RightShoulder -20.123592 -20.081389 -22.825215
RightArm 13.737550 27.919162 49.599111
RightForeArm -8.705133 -0.000000 14.994991
RightHand 6.594880 0.000000 11.485750
RightHandThumb1 -24.326973 -0.000000 -32.862282
LeftShoulder -19.828935 -0.694627 25.863588
LeftArm 34.306603 -22.933492 -59.573335
LeftForeArm 2.477472 -0.000000 42.387866
LeftHand 0.762669 -0.000000 35.677292
LeftHandThumb1 -26.253704 0.000000 33.147579
Head 17.249161 1.239396 -2.510901
642
root 0.925122 32.707528 -2.225600 11.304444 29.285661 7.086823
RightUpLeg -20.700018 14.979523 0.267509
RightLeg 68.157704 -0.000000 -0.000000
RightFoot -0.186017 -0.774423 1.095387
RightToeBase -9.245395 -0.000000 0.000000
LeftUpLeg -1.055829 -19.001334 -11.246444
LeftLeg -2.765705 -0.000000 0.000000
LeftFoot -3.935130 -9.319302 -4.177172
LeftToeBase 9.577706 -0.000000 -0.000000
Spine -9.733712 -10.971467 -6.032202
RightShoulder -20.128670 -20.085161 -22.811510
RightArm 13.720893 27.943355 49.548748
RightForeArm -8.702443 -0.000000 14.981870
RightHand 6.652348 -0.000000 11.504708
RightHandThumb1 -24.326973 -0.000000 -32.862282
LeftShoulder -19.816560 -0.645733 25.845308
LeftArm 34.255750 -22.953481 -59.607709
LeftForeArm 2.492314 -0.000000 42.551231
LeftHand 0.766130 -0.000000 35.673655
LeftHandThumb1 -26.253704 0.000000 33.147579
Head 17.292921 1.244287 -2.494888
643
root 0.921160 32.712807 -2.232947 11.294882 29.210286 7.010342
RightUpLeg -20.849781 15.938154 -0.211740
RightLeg 68.209805 -0.000000 -0.000000
RightFoot -1.091664 -2.881267 1.231250
RightToeBase -10.349609 -0.000000 0.000000
LeftUpLeg -1.136651 -18.903030 -11.186505
LeftLeg -2.701448 -0.000000 0.000000
LeftFoot -3.965622 -9.321450 -4.107990
LeftToeBase 9.516757 -0.000000 -0.000000
Spine -9.767205 -10.929957 -5.970519
RightShoulder -20.158437 -20.166814 -22.754768
RightArm 13.774722 28.042179 49.554097
RightForeArm -8.746837 0.000000 15.006815
RightHand 6.576158 -0.000000 11.499609
RightHandThumb1 -24.326973 -0.000000 -32.862282
LeftShoulder -19.815071 -0.578053 25.815290
LeftArm 34.266941 -22.957904 -59.629904
LeftForeArm 2.491461 -0.000000 42.690314
LeftHand 0.770737 -0.000000 35.728217
LeftHandThumb1 -26.253704 0.000000 33.147579
Head 17.310843 1.239706 -2.451298
644
root 0.918058 32.719079 -2.241866 11.322309 29.129455 6.939782
RightUpLeg -21.080926 16.949727 -0.782383
RightLeg 68.292606 -0.000000 -0.000000
RightFoot -2.084556 -4.846455 1.588246
RightToeBase -10.101398 -0.000000 0.000000
LeftUpLeg -1.256638 -18.784340 -11.123999
LeftLeg -2.631958 -0.000000 0.000000
LeftFoot -3.983342 -9.347419 -4.062323
LeftToeBase 9.543358 -0.000000 -0.000000
Spine -9.853036 -10.904159 -5.896253
RightShoulder -20.151739 -20.083689 -22.792833
RightArm 13.661120 28.040600 49.514126
RightForeArm -8.789211 -0.000000 15.053367
RightHand 6.620411 -0.000000 11.482074
RightHandThumb1 -24.326973 -0.000000 -32.862282
LeftShoulder -19.856717 -0.455279 25.731169
LeftArm 34.367189 -22.926606 -59.613137
LeftForeArm 2.478304 -0.000000 42.783782
LeftHand 0.795032 -0.000000 35.729593
LeftHandThumb1 -26.253704 0.000000 33.147579
Head 17.355558 1.242413 -2.417460
645
root 0.915500 32.724831 -2.251575 11.349963 29.047719 6.867483
RightUpLeg -21.345964 17.993568 -1.403783
RightLeg 68.374392 -0.000000 -0.000000
RightFoot -3.153162 -6.744003 1.361451
RightToeBase -9.267174 -0.000000 0.000000
LeftUpLeg -1.368521 -18.692395 -11.058674
LeftLeg -2.585521 -0.000000 0.000000
LeftFoot -3.998616 -9.346369 -4.013598
LeftToeBase 9.473310 -0.000000 -0.000000
Spine -9.932816 -10.873399 -5.831290
RightShoulder -20.169941 -20.058606 -22.786492
RightArm 13.610253 28.007818 49.461781
RightForeArm -8.746702 -0.000000 15.080334
RightHand 6.602023 -0.000000 11.426860
RightHandThumb1 -24.326973 -0.000000 -32.862282
LeftShoulder -19.829276 -0.530999 25.789011
LeftArm 34.151377 -22.863835 -59.590340
LeftForeArm 2.496640 0.000000 43.009661
LeftHand 0.733030 0.000000 35.650148
LeftHandThumb1 -26.253704 0.000000 33.147579
Head 17.389955 1.228553 -2.342326
646
root 0.915323 32.730297 -2.261214 11.399955 28.958398 6.811663
RightUpLeg -21.650205 19.086120 -2.099579
RightLeg 68.456459 -0.000000 -0.000000
RightFoot -4.206376 -8.522067 1.056680
RightToeBase -8.553363 -0.000000 0.000000
LeftUpLeg -1.483704 -18.570374 -11.005805
LeftLeg -2.550386 -0.000000 0.000000
LeftFoot -3.988683 -9.384243 -3.999501
LeftToeBase 9.488495 -0.000000 -0.000000
Spine -10.037310 -10.867765 -5.758452
RightShoulder -20.186660 -20.071208 -22.787293
RightArm 13.657473 28.132850 49.491437
RightForeArm -8.867597 0.000000 15.078387
RightHand 6.622289 0.000000 11.447672
RightHandThumb1 -24.326973 -0.000000 -32.862282
LeftShoulder -19.898194 -0.335556 25.695297
LeftArm 34.310453 -22.868842 -59.629868
LeftForeArm 2.550221 -0.000000 43.117040
LeftHand 0.832336 -0.000000 35.341449
LeftHandThumb1 -26.253704 0.000000 33.147579
Head 17.415158 1.244043 -2.304311
647
root 0.918451 32.734725 -2.265392 11.406469 28.879133 6.748104
RightUpLeg -21.919765 20.174758 -2.805545
RightLeg 68.524596 -0.000000 -0.000000
RightFoot -5.218640 -10.212624 0.331807
RightToeBase -8.244218 -0.000000 0.000000
LeftUpLeg -1.522329 -18.462597 -10.960437
LeftLeg -2.563221 -0.000000 0.000000
LeftFoot -3.959831 -9.409450 -3.909275
LeftToeBase 9.552004 -0.000000 -0.000000
Spine -10.108854 -10.838479 -5.677278
RightShoulder -20.221699 -20.086519 -22.789583
RightArm 13.642060 28.104964 49.438995
RightForeArm -8.800282 0.000000 15.108420
RightHand 6.570755 0.000000 11.470415
RightHandThumb1 -24.326973 -0.000000 -32.862282
LeftShoulder -19.897245 -0.393544 25.712657
LeftArm 34.160679 -22.796219 -59.623827
LeftForeArm 2.559515 0.000000 43.286580
LeftHand 0.820691 -0.000000 35.357355
LeftHandThumb1 -26.253704 0.000000 33.147579
Head 17.443411 1.203802 -2.281278
648
root 0.917606 32.738802 -2.281686 11.466858 28.809336 6.717087
RightUpLeg -22.320335 21.281545 -3.639014
RightLeg 68.660721 -0.000000 -0.000000
RightFoot -6.107019 -11.772887 -0.813133
RightToeBase -8.177537 -0.000000 0.000000
LeftUpLeg -1.638920 -18.337354 -10.932576
LeftLeg -2.568901 -0.000000 0.000000
LeftFoot -3.899338 -9.563345 -3.927575
LeftToeBase 9.472972 -0.000000 -0.000000
Spine -10.175532 -10.828043 -5.634559
RightShoulder -20.248364 -20.097281 -22.778703
RightArm 13.580048 27.976032 49.360950
RightForeArm -8.614995 0.000000 15.162425
RightHand 6.561163 -0.000000 11.383374
RightHandThumb1 -24.326973 -0.000000 -32.862282
LeftShoulder -19.919530 -0.401027 25.719090
LeftArm 34.121288 -22.741756 -59.646674
LeftForeArm 2.544896 -0.000000 43.429460
LeftHand 0.826955 -0.000000 35.366445
LeftHandThumb1 -26.253704 0.000000 33.147579
Head 17.409100 1.158025 -2.215986
649
root 0.917606 32.742584 -2.296233 11.508602 28.728324 6.677420
RightUpLeg -22.732828 22.408561 -4.513558
RightLeg 68.772878 -0.000000 -0.000000
RightFoot -6.932215 -13.291458 -2.169739
RightToeBase -8.742500 -0.000000 0.000000
LeftUpLeg -1.724032 -18.232240 -10.890995
LeftLeg -2.592006 -0.000000 0.000000
LeftFoot -3.850677 -9.639474 -3.816393
LeftToeBase 9.015322 -0.000000 -0.000000
Spine -10.230796 -10.795727 -5.589802
RightShoulder -20.286023 -20.075165 -22.776403
RightArm 13.544514 27.978007 49.331658
RightForeArm -8.615256 -0.000000 15.176600
RightHand 6.513137 0.000000 11.372254
RightHandThumb1 -24.326973 -0.000000 -32.862282
LeftShoulder -19.932988 -0.424927 25.745835
LeftArm 34.072845 -22.703725 -59.709436
LeftForeArm 2.591467 -0.000000 43.569745
LeftHand 0.818834 0.000000 35.292383
LeftHandThumb1 -26.253704 0.000000 33.147579
Head 17.376977 1.088461 -2.151279
